<svg width="110" height="109" viewBox="0 0 110 109" fill="none" xmlns="http://www.w3.org/2000/svg">
<rect x="13" y="13" width="97" height="96" rx="10" fill="#FFE3E2" fill-opacity="0.7"/>
<path d="M48.165 38.75C48.165 40.5 47.8733 42.1333 47.29 43.65C46.7067 45.1667 45.8783 46.5083 44.805 47.675C43.755 48.8183 42.495 49.7167 41.025 50.37C39.5783 51.0233 37.9917 51.35 36.265 51.35C34.5383 51.35 32.9517 51.0233 31.505 50.37C30.0583 49.7167 28.7983 48.8183 27.725 47.675C26.675 46.5083 25.8583 45.1667 25.275 43.65C24.6917 42.1333 24.4 40.5 24.4 38.75C24.4 37 24.6917 35.3667 25.275 33.85C25.8583 32.3333 26.675 31.0033 27.725 29.86C28.7983 28.6933 30.0583 27.7833 31.505 27.13C32.9517 26.4767 34.5383 26.15 36.265 26.15C37.9917 26.15 39.5783 26.4767 41.025 27.13C42.495 27.7833 43.755 28.6933 44.805 29.86C45.8783 31.0033 46.7067 32.3333 47.29 33.85C47.8733 35.3667 48.165 37 48.165 38.75ZM43.615 38.75C43.615 37.1867 43.3 35.775 42.67 34.515C42.04 33.2317 41.1767 32.2167 40.08 31.47C38.9833 30.7233 37.7117 30.35 36.265 30.35C34.8183 30.35 33.5467 30.7233 32.45 31.47C31.3533 32.2167 30.49 33.22 29.86 34.48C29.2533 35.74 28.95 37.1633 28.95 38.75C28.95 40.3133 29.2533 41.7367 29.86 43.02C30.49 44.28 31.3533 45.2833 32.45 46.03C33.5467 46.7767 34.8183 47.15 36.265 47.15C37.7117 47.15 38.9833 46.7767 40.08 46.03C41.1767 45.2833 42.04 44.28 42.67 43.02C43.3 41.7367 43.615 40.3133 43.615 38.75Z" fill="black"/>
<path d="M82.21 59.5C82.77 59.5 83.225 59.6867 83.575 60.06C83.925 60.4333 84.1 60.9 84.1 61.46V81.865C84.1 82.4717 83.89 82.985 83.47 83.405C83.0733 83.8017 82.5717 84 81.965 84C81.6617 84 81.3467 83.9533 81.02 83.86C80.7167 83.7433 80.4833 83.5917 80.32 83.405L66.565 65.94L67.475 65.38V82.04C67.475 82.6 67.2883 83.0667 66.915 83.44C66.565 83.8133 66.0983 84 65.515 84C64.955 84 64.5 83.8133 64.15 83.44C63.8 83.0667 63.625 82.6 63.625 82.04V61.635C63.625 61.0283 63.8233 60.5267 64.22 60.13C64.64 59.71 65.1533 59.5 65.76 59.5C66.0867 59.5 66.425 59.57 66.775 59.71C67.125 59.8267 67.3817 60.0133 67.545 60.27L80.88 77.28L80.285 77.7V61.46C80.285 60.9 80.46 60.4333 80.81 60.06C81.16 59.6867 81.6267 59.5 82.21 59.5Z" fill="black"/>
<path d="M57.92 55.2C57.7867 55.2 57.64 55.1867 57.48 55.16C57.32 55.1067 57.16 55.04 57 54.96L53 52.84C52.52 52.5733 52.1467 52.2533 51.88 51.88C51.64 51.5067 51.52 51.12 51.52 50.72C51.52 50.1067 51.76 49.6267 52.24 49.28C52.72 48.9333 53.1867 48.76 53.64 48.76C54.0133 48.76 54.36 48.8533 54.68 49.04C55.0267 49.2 55.3333 49.4 55.6 49.64L59.04 52.68C59.4133 53.0267 59.6 53.3867 59.6 53.76C59.6 54.1867 59.44 54.5333 59.12 54.8C58.8267 55.0667 58.4267 55.2 57.92 55.2Z" fill="black"/>
<rect x="2" y="2" width="96" height="96" rx="8" stroke="#4338CA" stroke-width="4"/>
</svg>
